<svg width="240" height="80" viewBox="0 0 240 80" fill="none" xmlns="http://www.w3.org/2000/svg">
  <circle cx="35" cy="40" r="30" fill="#EBF5FF" stroke="#4A90E2" stroke-width="1.5" />
  <ellipse cx="35" cy="40" rx="12" ry="30" stroke="#4A90E2" stroke-width="1" opacity="0.4" />
  <ellipse cx="35" cy="40" rx="22" ry="30" stroke="#4A90E2" stroke-width="1" opacity="0.4" />
  <ellipse cx="35" cy="40" rx="30" ry="12" stroke="#4A90E2" stroke-width="1" opacity="0.4" />
  <ellipse cx="35" cy="40" rx="30" ry="22" stroke="#4A90E2" stroke-width="1" opacity="0.4" />
  <path d="M5 55C15 57 35 55 55 40C70 30 80 15 82 13" stroke="#F97316" stroke-width="5" stroke-linecap="round" />
  <g transform="translate(65, 25) rotate(-25)">
    <path d="M0 0L20 6L16 9L0 6L-8 18L-13 16L-6 6L-20 4L-20 0Z" fill="#F97316" stroke="white" stroke-width="1" stroke-linejoin="round" />
  </g>
  <text x="75" y="45" font-family="sans-serif" font-weight="900" font-size="22" fill="#1B363F">DIJ</text>
  <text x="115" y="45" font-family="sans-serif" font-weight="700" font-size="22" fill="#F97316">LOGISTICS</text>
  <text x="75" y="60" font-family="sans-serif" font-weight="700" font-size="7" fill="#64748B" letter-spacing="2">TU CARGA EN TIEMPO RECORD</text>
</svg>
